<svg xmlns="http://www.w3.org/2000/svg" viewBox="0 0 512 512"><rect width="512" height="512" fill="#0a1121"/><g transform="translate(51.19999999999999 48.639999999999986) scale(12.8)"><path d="M16 3 C 13.6 5 12.4 6.8 12.2 8.6 C 9 9 6.6 11.4 6.2 15 C 5.6 19.6 7 24 10 26.6 C 12 28.4 14 29.2 16 29.4 C 18 29.2 20 28.4 22 26.6 C 25 24 26.4 19.6 25.8 15 C 25.4 11.4 23 9 19.8 8.6 C 19.6 6.6 18.2 4.8 16 3 Z" fill="#e5ecf3"/><path d="M16 14 C 14.4 16.4 13.6 19 13.8 21.6 L 16 19.6 L 18.2 21.6 C 18.4 19 17.6 16.4 16 14 Z" fill="#eca851"/></g></svg>