<svg xmlns="http://www.w3.org/2000/svg" viewBox="0 0 512 512"><defs><linearGradient id="sky" x1="0" y1="0" x2="0" y2="1"><stop offset="0" stop-color="#0e142a"/><stop offset="0.48" stop-color="#33244b"/><stop offset="1" stop-color="#a85a28"/></linearGradient><radialGradient id="glow" cx="0.78" cy="0.88" r="0.5"><stop offset="0" stop-color="#f2b966" stop-opacity="0.5"/><stop offset="1" stop-color="#f2b966" stop-opacity="0"/></radialGradient></defs><rect width="512" height="512" fill="url(#sky)"/><rect width="512" height="512" fill="url(#glow)"/><g transform="translate(51.19999999999999 48.639999999999986) scale(12.8)"><path d="M16 3 C 13.6 5 12.4 6.8 12.2 8.6 C 9 9 6.6 11.4 6.2 15 C 5.6 19.6 7 24 10 26.6 C 12 28.4 14 29.2 16 29.4 C 18 29.2 20 28.4 22 26.6 C 25 24 26.4 19.6 25.8 15 C 25.4 11.4 23 9 19.8 8.6 C 19.6 6.6 18.2 4.8 16 3 Z" fill="#070a22"/></g></svg>